<?xml version="1.0" standalone="no"?>
<!DOCTYPE svg PUBLIC "-//W3C//DTD SVG 20010904//EN"
 "http://www.w3.org/TR/2001/REC-SVG-20010904/DTD/svg10.dtd">
<svg version="1.0" xmlns="http://www.w3.org/2000/svg"
 width="739.000000pt" height="415.000000pt" viewBox="0 0 739.000000 415.000000"
 preserveAspectRatio="xMidYMid meet">
<metadata>
Created by potrace 1.16, written by Peter Selinger 2001-2019
</metadata>
<g transform="translate(0.000000,415.000000) scale(0.100000,-0.100000)"
fill="#000000" stroke="none">
<path d="M10 4135 c8 -2 152 -6 320 -9 379 -6 787 -22 945 -36 66 -7 244 -10
395 -9 358 3 362 3 422 -24 53 -25 107 -24 116 1 3 9 -5 8 -29 -2 -30 -13 -37
-12 -79 10 -53 28 -64 28 -430 25 -151 -1 -329 2 -395 9 -221 20 -1325 51
-1265 35z"/>
<path d="M2665 4083 c90 -8 559 -85 628 -104 22 -6 41 -8 44 -5 8 7 -58 22
-222 50 -312 53 -404 66 -446 64 l-44 -1 40 -4z"/>
<path d="M2710 4061 c0 -12 49 -27 130 -40 36 -5 119 -19 185 -31 66 -11 154
-22 195 -25 l75 -4 -73 9 c-40 5 -128 19 -195 30 -67 12 -153 26 -192 32 -38
6 -82 17 -97 25 -16 7 -28 9 -28 4z"/>
<path d="M3300 3933 c82 -5 194 -24 260 -43 90 -25 220 -48 342 -61 57 -5 120
-14 141 -20 20 -5 65 -14 100 -19 34 -5 139 -22 232 -39 94 -16 206 -32 250
-35 60 -4 46 -1 -55 13 -74 11 -187 29 -250 41 -63 12 -143 26 -177 31 -35 4
-80 13 -100 18 -21 6 -84 15 -141 20 -120 13 -256 37 -326 58 -78 23 -206 43
-266 41 -52 -1 -52 -2 -10 -5z"/>
<path d="M4000 3792 c8 -6 51 -15 95 -22 44 -6 123 -23 175 -37 103 -27 309
-46 425 -40 l70 3 -85 2 c-169 5 -317 21 -410 46 -52 13 -131 30 -174 36 -44
7 -86 14 -95 17 -14 4 -14 3 -1 -5z"/>
<path d="M130 3755 c0 -8 -7 -15 -15 -15 -8 0 -15 -5 -15 -11 0 -18 -63 -89
-79 -89 -12 0 -16 -10 -16 -39 l0 -38 34 9 c33 10 93 45 99 61 2 4 9 7 15 7 7
0 34 11 61 25 61 31 40 34 -23 3 -29 -14 -46 -18 -48 -11 -3 8 -13 7 -31 -3
-32 -16 -42 -17 -42 -5 0 14 44 80 53 81 13 0 -3 -44 -21 -57 -9 -8 -11 -13
-4 -13 6 0 19 12 28 26 15 22 22 25 51 19 43 -8 73 2 73 23 0 14 -2 14 -13 -2
-11 -15 -20 -17 -58 -9 -38 8 -44 12 -41 31 2 12 1 22 -2 22 -3 0 -6 -7 -6
-15z m-8 -122 c-7 -3 -18 -10 -25 -17 -16 -16 -53 -36 -66 -36 -6 0 -11 11
-11 24 0 25 30 44 49 32 5 -3 20 -2 33 3 12 5 25 6 28 3 3 -2 -1 -7 -8 -9z"/>
<path d="M4725 3730 c-2 -4 35 -12 83 -18 48 -6 96 -13 107 -17 16 -5 17 -5 4
4 -20 13 -188 40 -194 31z"/>
<path d="M4065 3704 c-11 -2 -65 -6 -120 -10 -55 -4 -93 -9 -85 -11 8 -1 98 3
200 11 110 8 153 13 105 13 -44 0 -89 -1 -100 -3z"/>
<path d="M4110 3680 c-262 -15 -433 -41 -567 -85 -40 -13 -89 -27 -110 -31
-21 -3 -58 -19 -83 -34 -25 -15 -83 -48 -130 -73 -117 -63 -221 -136 -382
-269 -127 -104 -163 -148 -123 -148 8 0 15 -5 15 -10 0 -7 -13 -8 -35 -4 -19
3 -51 3 -71 -1 -29 -5 -35 -10 -31 -26 3 -10 1 -22 -4 -25 -5 -3 -9 -10 -9
-16 0 -7 9 -2 20 10 16 17 32 22 68 22 47 0 112 -29 112 -50 0 -5 11 -9 24 -8
16 2 22 7 18 16 -3 10 6 9 34 -6 25 -12 68 -21 119 -24 44 -3 71 -2 60 3 -11
4 -45 8 -76 8 -39 1 -70 8 -103 26 -44 23 -46 24 -46 5 0 -25 -16 -26 -30 -1
-14 27 -73 44 -131 39 -27 -3 -49 -1 -49 3 0 17 55 22 114 9 34 -7 90 -16 126
-20 36 -3 85 -16 110 -28 25 -12 56 -21 70 -21 19 1 15 3 -13 10 -20 5 -55 18
-77 29 -22 11 -61 20 -87 21 -65 1 -97 12 -101 32 -2 9 1 17 7 17 6 0 11 -8
11 -17 0 -12 3 -14 8 -6 5 8 13 9 22 3 8 -6 22 -10 30 -9 8 0 -1 9 -20 19 -22
12 -45 17 -62 14 -16 -3 -28 -2 -28 3 1 12 263 226 355 289 44 31 118 76 165
101 47 25 104 58 128 74 23 16 48 29 55 29 7 0 51 12 98 26 224 68 460 96 809
96 388 0 814 -36 965 -83 39 -11 105 -39 148 -60 43 -21 85 -39 94 -39 28 0
-137 76 -226 104 -190 60 -838 107 -1191 86z"/>
<path d="M3880 3624 c-118 -8 -201 -16 -198 -20 3 -2 76 1 163 6 256 17 715
-8 975 -51 268 -45 380 -81 395 -130 8 -25 -1 -234 -16 -339 -5 -41 -16 -124
-24 -184 -7 -59 -17 -111 -20 -114 -7 -7 -348 -4 -405 3 -34 5 -34 4 -6 -5 30
-10 411 -18 420 -9 3 3 13 59 21 125 8 65 19 148 25 184 5 36 12 129 16 207
l6 142 -27 26 c-61 56 -419 125 -757 144 -200 12 -494 20 -568 15z"/>
<path d="M5290 3626 c3 -2 39 -16 80 -30 255 -86 412 -167 460 -238 13 -18 42
-53 66 -78 23 -25 49 -63 58 -85 8 -22 22 -61 32 -86 27 -71 16 -79 -101 -72
-112 7 -141 -2 -190 -60 -51 -59 -35 -57 25 4 l52 52 109 -6 c109 -6 110 -5
121 19 9 19 6 36 -15 91 -14 38 -28 78 -32 90 -3 11 -12 27 -20 33 -8 7 -15
19 -15 28 0 12 6 10 26 -9 33 -30 57 -77 50 -95 -3 -8 -1 -14 4 -14 19 0 9 45
-18 84 -34 49 -59 66 -71 47 -6 -10 -16 -4 -37 25 -74 98 -183 167 -369 234
-49 17 -106 38 -125 45 -40 16 -97 29 -90 21z"/>
<path d="M5470 3602 c0 -21 140 -56 290 -72 58 -6 121 -15 140 -20 19 -5 179
-30 355 -55 263 -38 843 -131 1035 -166 25 -4 59 -8 75 -7 17 0 -4 6 -45 13
-41 7 -226 37 -410 68 -184 31 -479 77 -655 102 -176 25 -336 50 -355 55 -19
5 -82 14 -140 20 -114 12 -255 43 -277 61 -8 8 -13 8 -13 1z"/>
<path d="M3895 3561 c-11 -5 -94 -14 -184 -20 -102 -6 -168 -14 -175 -22 -8
-9 -6 -10 9 -5 25 9 247 27 300 24 22 -1 51 4 65 12 19 10 63 11 201 6 98 -4
179 -3 182 1 7 11 -374 15 -398 4z"/>
<path d="M5388 3482 c-35 -21 -64 -82 -72 -147 l-5 -50 13 55 c23 98 52 135
116 151 l25 7 -25 1 c-14 0 -37 -7 -52 -17z"/>
<path d="M5746 3481 c5 -4 52 -16 104 -26 52 -10 201 -40 330 -68 129 -27 253
-53 275 -58 78 -16 412 -101 535 -135 223 -63 359 -95 382 -91 21 4 21 4 -3 6
-29 1 -194 43 -379 95 -122 34 -455 119 -535 135 -22 5 -128 28 -235 50 -107
23 -251 53 -320 67 -69 13 -134 26 -144 28 -10 3 -15 1 -10 -3z"/>
<path d="M5475 3475 c-5 -2 -23 -6 -39 -10 -57 -12 -19 -12 44 0 36 7 52 13
35 13 -16 0 -34 -1 -40 -3z"/>
<path d="M5360 3408 c-14 -32 -27 -111 -45 -265 -13 -121 -27 -227 -29 -234
-9 -29 -15 -104 -7 -84 5 11 11 46 15 78 4 31 12 55 17 52 5 -3 6 1 3 10 -4 9
1 89 11 178 16 159 37 260 57 285 6 7 8 15 5 19 -4 3 -16 -14 -27 -39z"/>
<path d="M5425 3434 c-16 -8 -21 -11 -10 -8 11 4 41 9 66 11 42 5 48 2 77 -28
22 -23 35 -51 43 -89 6 -30 15 -66 20 -80 33 -97 38 -307 8 -335 -8 -7 -68
-25 -134 -40 -175 -39 -205 -47 -205 -55 0 -4 19 -1 43 6 23 7 98 26 166 41
68 15 129 33 137 40 35 36 30 208 -13 380 -35 138 -60 173 -126 173 -23 -1
-55 -8 -72 -16z"/>
<path d="M5614 3429 c67 -16 128 -39 157 -60 32 -23 103 -133 149 -231 35 -74
45 -86 54 -63 3 8 1 14 -3 12 -5 -1 -30 39 -55 90 -52 102 -114 191 -148 210
-34 19 -147 53 -172 52 -11 -1 -3 -5 18 -10z"/>
<path d="M229 3425 c-3 -2 -30 -9 -60 -14 -35 -5 -43 -9 -24 -10 17 0 46 4 65
9 26 8 38 7 45 -2 12 -16 142 -15 199 1 22 5 43 8 48 5 4 -3 8 0 8 5 0 14 -6
14 -52 0 -57 -15 -187 -17 -193 -1 -4 12 -27 17 -36 7z"/>
<path d="M3595 3422 c-22 -4 41 -7 140 -7 213 0 255 -6 255 -38 0 -17 -92
-154 -119 -177 -4 -3 -14 -17 -23 -32 -18 -27 -59 -40 -223 -67 l-60 -10 60 5
c33 3 95 12 138 21 64 13 82 21 95 42 9 14 19 28 23 31 3 3 31 39 62 80 67 88
76 133 30 144 -41 10 -332 16 -378 8z"/>
<path d="M676 3411 c-3 -5 -31 -12 -62 -16 -32 -4 -67 -11 -78 -16 -13 -5 -5
-6 24 -2 25 4 59 7 75 8 17 0 32 3 35 6 3 3 14 11 25 17 17 10 17 11 3 12 -9
0 -19 -4 -22 -9z"/>
<path d="M5488 3413 c-10 -2 -18 -11 -18 -18 0 -7 -8 -16 -17 -18 -11 -3 -8
-5 9 -6 20 -1 26 3 22 14 -11 27 21 16 34 -12 18 -40 15 -46 -18 -41 -16 3
-30 0 -30 -4 0 -5 15 -8 34 -7 19 2 41 -2 49 -9 9 -8 18 -9 21 -4 3 6 0 12 -8
15 -11 4 -46 60 -46 73 0 2 8 1 18 -3 14 -5 13 -3 -3 10 -11 9 -22 16 -25 16
-3 -1 -13 -3 -22 -6z"/>
<path d="M1975 3378 c-102 -25 -117 -30 -113 -33 2 -2 46 7 98 20 52 12 86 23
75 23 -11 0 -38 -5 -60 -10z"/>
<path d="M4870 3383 c59 -4 81 -16 63 -34 -7 -7 -17 -8 -29 -1 -11 5 -32 12
-49 16 -46 11 -17 -9 34 -23 47 -14 65 -6 59 25 -3 16 -13 19 -68 20 -60 1
-61 1 -10 -3z"/>
<path d="M5868 3368 c17 -22 96 -58 125 -58 29 0 47 -18 47 -47 0 -20 2 -22
19 -11 15 9 23 9 35 -1 9 -8 16 -20 16 -27 0 -15 117 -93 141 -94 8 0 23 6 33
13 17 13 13 17 -49 45 -37 18 -70 32 -74 32 -15 -1 96 -60 114 -61 17 0 15 -2
-6 -10 -22 -8 -35 -4 -86 30 -33 22 -65 52 -71 66 -8 16 -20 25 -35 25 -16 0
-28 9 -35 25 -9 19 -19 25 -43 25 -17 0 -57 14 -88 32 -31 18 -50 25 -43 16z"/>
<path d="M4542 3335 c-16 -35 -16 -34 21 -49 33 -14 254 -42 262 -34 3 3 -47
10 -111 17 -112 12 -164 25 -164 42 0 24 15 39 39 39 48 0 62 -27 21 -43 -12
-4 -12 -6 2 -6 9 -1 21 6 26 15 8 14 13 14 48 -4 48 -24 116 -44 109 -31 -4 5
-11 9 -16 9 -6 0 -47 16 -90 35 -97 43 -131 45 -147 10z"/>
<path d="M5297 3220 c-4 -36 -17 -147 -29 -247 l-21 -182 -31 -4 c-21 -3 -14
-4 19 -5 71 -3 376 60 362 75 -2 2 -38 -5 -78 -16 -75 -21 -223 -51 -248 -51
-11 0 -12 11 -8 53 36 306 47 413 44 426 -2 9 -6 -13 -10 -49z"/>
<path d="M2505 3182 c-80 -34 -82 -43 -25 -156 l40 -78 -92 7 c-51 3 -102 9
-112 12 -16 4 -17 3 -6 -8 9 -10 40 -14 109 -14 138 1 138 1 110 24 -13 11
-21 23 -17 27 5 4 16 0 26 -9 29 -26 38 -20 12 8 -18 19 -26 22 -37 14 -10 -9
-13 -8 -13 5 0 9 7 16 15 16 12 0 15 10 14 45 -2 24 -5 42 -8 39 -3 -3 -4 -20
-3 -38 5 -52 -20 -52 -47 0 -13 24 -21 50 -17 59 17 46 193 76 222 38 13 -19
2 -43 -21 -43 -14 0 -25 -22 -25 -51 0 -10 -4 -19 -10 -19 -5 0 -10 -5 -10
-11 0 -8 5 -8 15 1 8 7 15 23 15 36 0 14 9 28 23 35 31 17 37 29 24 56 -9 21
-16 23 -76 22 -38 0 -83 -7 -106 -17z"/>
<path d="M2557 3166 c-46 -17 -77 -43 -76 -65 1 -15 2 -15 6 0 5 20 68 56 119
68 28 6 32 9 14 10 -14 0 -42 -6 -63 -13z"/>
<path d="M2601 3139 c-21 -23 -46 -110 -38 -131 3 -7 6 -4 6 7 2 43 22 94 47
119 15 14 22 26 16 26 -6 0 -20 -9 -31 -21z"/>
<path d="M6015 3126 c9 -21 12 -50 9 -73 -5 -39 -5 -40 34 -51 48 -15 73 -39
52 -52 -8 -5 -52 -13 -99 -20 -124 -15 -205 -36 -264 -66 -40 -20 -61 -24 -92
-20 -49 7 -75 -5 -153 -73 -31 -27 -70 -54 -85 -60 -46 -18 -110 -13 -183 15
-88 33 -104 38 -104 31 0 -3 38 -19 86 -36 143 -52 205 -41 311 54 66 59 68
60 122 58 38 -1 66 4 94 18 69 36 113 47 239 64 129 18 161 32 142 62 -6 9
-29 23 -52 31 -41 13 -42 15 -36 46 5 30 -16 106 -30 106 -3 0 1 -15 9 -34z"/>
<path d="M4864 3125 c-18 -27 -16 -56 4 -63 11 -3 11 -1 0 17 -11 18 -10 24 9
42 27 28 65 19 41 -9 -8 -9 -19 -29 -26 -44 -10 -24 -9 -28 4 -28 8 0 12 4 9
10 -3 5 -1 19 6 31 9 18 13 19 21 8 6 -10 7 -7 3 9 -6 21 -4 23 17 17 74 -21
128 -63 128 -98 l0 -21 -22 21 c-20 20 -23 21 -49 7 -16 -8 -33 -24 -40 -35
-6 -11 -13 -18 -16 -15 -3 3 0 12 6 20 7 8 10 19 7 25 -9 14 4 41 21 41 13 0
13 -2 2 -17 -13 -16 -12 -17 3 -4 22 17 13 35 -14 28 -15 -4 -18 -2 -14 11 3
9 -5 4 -19 -11 -14 -15 -25 -34 -25 -42 0 -7 -8 -16 -17 -18 -17 -4 -17 -5 0
-6 10 -1 21 9 27 24 5 14 14 25 20 25 6 0 8 -5 4 -11 -11 -19 -14 -79 -3 -79
5 0 25 16 45 35 l35 35 23 -25 c25 -27 36 -24 36 9 0 37 -30 66 -104 102 -86
41 -101 42 -122 9z"/>
<path d="M6589 3136 c7 -9 19 -16 25 -17 6 0 36 -17 66 -37 78 -53 162 -158
188 -234 12 -35 19 -47 16 -28 -20 109 -120 233 -239 295 -38 20 -63 30 -56
21z"/>
<path d="M6133 3088 c-6 -24 -15 -52 -19 -62 -5 -13 -4 -17 3 -13 6 4 16 30
23 58 9 37 16 49 27 45 8 -3 22 -6 30 -6 12 0 14 -7 10 -32 -5 -31 -5 -31 6
-9 11 22 15 23 97 19 92 -5 150 -26 150 -56 0 -25 -116 -150 -161 -173 -34
-17 -51 -19 -115 -13 -60 5 -78 4 -92 -9 -29 -26 -109 -47 -211 -56 -87 -7
-106 -12 -167 -46 -79 -45 -154 -110 -154 -135 0 -24 61 -76 97 -84 18 -4 56
2 98 15 113 35 353 127 442 170 46 21 92 39 104 39 12 0 43 9 68 21 25 11 64
29 86 39 22 10 64 21 93 25 65 7 128 31 136 51 3 8 17 19 31 24 31 12 31 22 1
86 -24 51 -61 86 -125 119 -37 19 -301 36 -301 19 0 -5 60 -9 134 -10 l134 -1
58 -39 c42 -28 67 -54 86 -89 34 -61 34 -63 4 -75 -13 -5 -28 -15 -33 -23 -14
-24 -68 -46 -130 -53 -32 -3 -73 -15 -91 -25 -18 -11 -39 -19 -45 -19 -7 0
-29 -9 -50 -20 -20 -11 -47 -20 -59 -20 -13 0 -57 -16 -98 -36 -169 -83 -499
-199 -537 -189 -13 3 -41 21 -61 40 l-37 34 38 39 c21 22 73 59 115 83 69 39
85 44 164 51 98 8 194 32 220 55 14 12 31 14 86 9 95 -9 140 11 221 100 51 57
61 74 59 99 -3 26 -9 32 -53 47 -28 10 -81 17 -122 18 -39 0 -73 4 -75 9 -1 5
-19 12 -38 16 -35 6 -36 6 -47 -37z"/>
<path d="M6232 3052 c-12 -8 -56 -171 -48 -179 2 -2 12 31 22 74 9 43 22 84
28 90 9 10 32 10 100 3 49 -6 91 -9 93 -6 3 2 -22 7 -54 11 -32 3 -74 8 -93
11 -19 2 -41 0 -48 -4z"/>
<path d="M6176 2962 c-18 -81 -29 -94 -39 -42 -3 17 -5 13 -4 -10 2 -24 7 -35
17 -35 10 0 20 22 32 70 10 39 17 77 15 85 -1 8 -11 -23 -21 -68z"/>
<path d="M5722 2957 c-29 -29 -52 -56 -52 -61 0 -5 24 17 53 48 l54 56 64 -1
c67 0 196 -20 217 -33 7 -4 12 -2 12 3 0 6 -1 11 -2 11 -2 0 -41 7 -88 15 -47
8 -112 15 -145 15 -60 0 -61 -1 -113 -53z"/>
<path d="M4040 2990 c-14 -4 8 -5 50 -2 41 2 77 6 79 8 8 7 -104 2 -129 -6z"/>
<path d="M1785 2983 c-176 -15 -311 -62 -450 -156 -33 -23 -90 -55 -126 -73
-80 -39 -180 -130 -237 -214 -42 -63 -101 -193 -108 -239 -2 -14 -6 -40 -9
-58 -11 -62 36 -55 78 12 16 25 32 45 37 45 4 0 17 15 28 33 11 19 28 47 38
63 17 27 17 28 1 15 -10 -8 -30 -34 -44 -58 -13 -24 -29 -43 -33 -43 -5 0 -21
-20 -37 -45 -25 -41 -50 -62 -60 -52 -11 11 30 153 62 217 74 147 176 255 299
317 39 20 97 54 130 76 87 58 210 113 301 133 118 25 573 25 614 0 12 -8 -59
-82 -86 -89 -14 -4 -13 -5 5 -6 25 -1 105 75 99 93 -2 6 -19 14 -38 18 -38 8
-403 17 -464 11z"/>
<path d="M2985 2985 c143 -27 873 -69 1365 -80 140 -3 314 -7 385 -9 108 -4
116 -3 50 4 -44 4 -204 10 -355 14 -151 3 -275 5 -275 6 0 0 -67 2 -150 5
-177 6 -611 32 -775 46 -136 11 -273 19 -245 14z"/>
<path d="M3321 2985 c16 -15 760 -42 796 -28 13 5 -42 7 -140 7 -89 -1 -265 4
-392 12 -268 15 -270 15 -264 9z"/>
<path d="M2880 2960 c8 -5 20 -10 25 -10 6 0 3 5 -5 10 -8 5 -19 10 -25 10 -5
0 -3 -5 5 -10z"/>
<path d="M2660 2930 c52 -3 98 -4 102 -1 4 4 -39 7 -95 7 l-102 2 95 -8z"/>
<path d="M2063 2870 c-65 -32 -149 -83 -186 -112 -295 -230 -265 -211 -316
-203 -46 7 -95 40 -85 57 3 4 14 -2 24 -14 10 -13 21 -20 24 -17 11 11 -39 48
-53 40 -36 -22 22 -69 95 -77 54 -7 40 -15 319 202 39 30 126 84 195 119 69
35 120 64 113 65 -6 0 -65 -27 -130 -60z"/>
<path d="M3090 2921 c19 -5 161 -19 315 -30 154 -12 334 -26 400 -31 66 -6
217 -17 335 -25 118 -9 274 -20 345 -25 122 -9 254 -11 210 -4 -11 2 -94 8
-185 13 -189 12 -363 24 -640 46 -107 8 -314 24 -460 35 -146 11 -285 22 -310
25 -42 4 -43 4 -10 -4z"/>
<path d="M2670 2890 c-208 -12 -443 -39 -531 -61 -76 -19 -255 -96 -245 -106
2 -3 43 13 91 36 47 22 109 48 138 56 121 37 715 84 913 72 50 -3 96 -2 102 2
16 9 -299 10 -468 1z"/>
<path d="M5566 2755 c-44 -30 -74 -55 -67 -55 7 0 43 21 79 46 36 25 75 50 86
54 21 9 21 9 1 9 -11 0 -56 -24 -99 -54z"/>
<path d="M6770 2786 c-26 -29 -21 -53 12 -58 33 -4 74 -87 91 -183 8 -44 15
-71 16 -59 4 71 -53 239 -84 249 -51 16 -50 14 -25 40 13 14 31 25 40 25 27 0
60 -44 75 -101 17 -62 20 -271 5 -364 -5 -33 -18 -123 -30 -200 -35 -239 -64
-328 -123 -388 -43 -42 -71 -47 -268 -49 -104 -1 -126 -4 -79 -8 111 -10 294
5 331 26 67 39 111 164 149 419 12 77 25 167 30 200 5 33 10 116 10 184 0 191
-34 291 -100 291 -15 0 -36 -10 -50 -24z"/>
<path d="M4630 2773 c-218 -35 -366 -80 -530 -162 -160 -80 -314 -163 -290
-156 26 7 57 21 265 127 179 91 324 142 475 167 69 11 136 22 150 24 17 3 14
4 -10 4 -19 0 -46 -2 -60 -4z"/>
<path d="M1280 2755 c0 -6 7 -20 15 -32 15 -21 13 -25 -20 -62 -36 -39 -36
-40 -56 -20 -10 10 -29 18 -41 18 -21 -1 -21 -2 -3 -6 27 -7 56 -33 49 -45 -4
-6 -19 -7 -35 -4 -15 3 -30 2 -33 -3 -3 -4 11 -8 30 -9 28 -1 44 7 78 39 53
48 59 68 35 106 -10 15 -19 23 -19 18z"/>
<path d="M5098 2747 c8 -9 23 -19 34 -23 22 -7 101 -125 90 -135 -4 -3 -27
-12 -51 -19 -67 -21 -128 -85 -200 -206 -35 -60 -71 -115 -79 -121 -14 -12
-14 -13 0 -13 10 0 40 42 77 105 100 172 174 237 268 237 57 0 68 5 52 24 -6
8 -9 25 -7 39 3 14 2 25 -3 25 -17 0 -39 -13 -39 -22 0 -7 5 -6 14 1 11 9 15
5 18 -24 3 -29 1 -35 -14 -35 -10 0 -18 5 -18 11 0 6 -16 38 -36 70 -25 43
-48 66 -77 81 -32 16 -39 17 -29 5z"/>
<path d="M6758 2693 c-59 -68 -136 -331 -188 -643 -11 -63 -20 -118 -20 -122
0 -5 -15 -8 -34 -8 -27 0 -39 7 -56 30 -12 17 -31 35 -43 41 -14 8 -8 -4 19
-34 33 -39 45 -46 76 -47 20 0 39 4 42 9 3 5 14 62 25 127 57 342 138 603 203
648 16 12 18 16 7 16 -9 0 -23 -8 -31 -17z"/>
<path d="M3695 2668 c-58 -20 -160 -61 -215 -85 -30 -14 -79 -34 -107 -45 -29
-10 -55 -24 -58 -29 -8 -12 -3 -11 31 5 60 29 291 124 342 141 28 9 52 18 52
21 0 6 -11 4 -45 -8z"/>
<path d="M6253 2640 c-30 -13 -43 -25 -43 -39 0 -29 30 -42 60 -26 13 7 31 11
39 8 14 -4 14 -4 1 6 -12 9 -13 14 -2 31 8 13 8 20 1 20 -5 0 -7 5 -4 10 9 15
-5 12 -52 -10z m40 -21 c-8 -28 -49 -47 -66 -30 -9 9 -7 16 13 31 34 27 60 26
53 -1z"/>
<path d="M6764 2639 c-3 -5 4 -9 15 -9 54 0 89 -198 70 -402 -17 -193 -35
-281 -84 -413 -6 -14 -5 -17 3 -10 16 16 59 163 71 245 36 245 32 443 -10 541
-20 45 -52 69 -65 48z"/>
<path d="M1110 2571 c0 -5 -23 -31 -50 -57 -36 -34 -47 -50 -38 -56 10 -6 9
-8 -2 -8 -12 -1 -11 -3 3 -11 23 -13 54 -3 62 21 4 12 12 17 23 14 12 -4 14
-3 4 3 -10 8 -10 12 3 23 9 7 21 23 27 34 8 16 2 13 -22 -9 -17 -16 -38 -42
-46 -57 -17 -32 -34 -37 -34 -10 0 10 20 37 45 61 44 42 55 61 35 61 -5 0 -10
-4 -10 -9z"/>
<path d="M6738 2471 c-2 -72 -7 -93 -23 -111 -16 -18 -20 -37 -21 -104 l-2
-81 7 75 c6 70 24 120 45 120 4 0 0 -12 -10 -27 -14 -21 -19 -47 -19 -105 0
-42 3 -74 8 -71 5 3 6 33 3 67 -6 63 6 109 20 73 8 -21 0 -132 -11 -162 -7
-16 -5 -18 5 -8 18 17 27 172 11 182 -6 4 -9 15 -5 25 5 13 9 14 20 5 10 -8
14 -8 14 -1 0 6 -7 15 -16 20 -14 8 -16 25 -15 101 1 50 0 91 -2 91 -3 0 -7
-40 -9 -89z"/>
<path d="M4345 2509 c-70 -10 -116 -24 -169 -51 -65 -33 -307 -210 -324 -237
-9 -14 -31 -41 -49 -60 -32 -35 -35 -51 -7 -51 21 0 74 29 74 40 0 26 54 83
120 125 41 26 86 55 100 65 35 23 121 41 207 43 40 1 73 5 73 10 0 4 12 7 28
8 15 1 38 5 52 10 19 6 15 7 -15 3 -22 -3 -89 -12 -150 -20 -154 -20 -176 -25
-205 -44 -14 -9 -60 -39 -103 -66 -48 -31 -80 -57 -83 -71 -4 -13 -10 -23 -15
-23 -5 0 -14 -11 -20 -24 -10 -21 -56 -52 -65 -43 -2 2 9 17 24 33 15 16 35
41 44 55 18 29 259 203 334 243 27 14 74 31 104 37 65 14 234 17 270 5 20 -7
23 -6 13 4 -16 17 -155 22 -238 9z"/>
<path d="M5179 2506 c-21 -7 -49 -23 -64 -34 -37 -29 -109 -112 -102 -118 2
-3 24 17 48 44 82 91 152 126 209 104 43 -17 101 -84 136 -158 77 -163 86
-479 24 -832 -19 -106 -19 -192 0 -192 5 0 6 8 3 18 -3 14 4 22 29 32 45 18
100 59 93 70 -3 5 4 55 15 111 12 57 19 119 16 138 -4 25 2 53 17 90 20 47 27
55 72 73 34 14 88 23 170 28 84 5 138 14 180 30 148 55 151 56 135 75 -12 14
-58 2 -155 -41 -28 -12 -72 -18 -150 -20 -92 -2 -119 -7 -165 -28 -66 -30 -52
-35 16 -6 34 15 74 21 153 24 80 2 120 9 161 25 105 42 130 50 135 42 2 -5
-39 -25 -93 -46 -84 -33 -112 -38 -217 -45 -75 -4 -134 -13 -157 -24 -54 -23
-62 -21 -54 17 27 130 27 163 0 221 -14 31 -33 62 -43 68 -10 7 -23 23 -30 36
-6 12 -16 22 -22 22 -12 0 20 -51 44 -68 18 -14 67 -103 67 -122 0 -25 -22 -6
-44 38 -13 26 -33 56 -45 66 -12 11 -21 24 -21 31 0 7 -9 20 -20 30 -13 12
-18 26 -15 39 5 19 5 19 -5 4 -9 -14 -3 -29 29 -75 22 -32 52 -79 66 -105 14
-27 30 -48 35 -48 23 0 -2 -153 -40 -250 -14 -36 -19 -65 -15 -89 7 -45 -37
-260 -56 -272 -22 -14 -36 -10 -17 4 9 7 19 26 22 43 4 16 3 23 0 17 -3 -7
-11 -13 -18 -13 -7 0 -21 -9 -31 -20 -22 -24 -9 -27 17 -3 10 9 18 11 18 5 0
-6 -10 -18 -22 -26 -15 -11 -18 -16 -8 -16 8 -1 2 -8 -14 -16 -47 -26 -50 -9
-27 123 61 349 54 654 -18 831 -35 86 -72 134 -127 161 -46 24 -65 25 -115 7z"/>
<path d="M6185 2483 c-165 -45 -452 -140 -472 -155 -7 -6 -18 -6 -24 -2 -7 4
-9 3 -5 -4 3 -6 2 -13 -4 -17 -5 -3 -10 -17 -10 -31 l0 -25 43 30 c43 29 156
70 363 131 97 28 120 32 177 26 64 -7 65 -8 85 -49 11 -23 28 -63 37 -89 34
-98 98 -159 164 -157 l36 2 -38 6 c-48 8 -101 51 -129 104 -31 61 -68 169 -61
181 3 5 1 6 -5 2 -7 -4 -12 -3 -12 3 0 5 4 12 10 16 10 6 40 -44 40 -67 0 -8
15 -45 34 -84 41 -86 83 -124 134 -123 l37 1 -38 8 c-20 4 -49 18 -63 31 -35
33 -79 114 -98 182 -13 43 -23 60 -40 67 -31 12 -135 20 -161 13z m143 -18 c2
-2 1 -9 -3 -15 -5 -7 -29 -9 -74 -4 -62 6 -80 2 -241 -46 -199 -61 -285 -93
-312 -116 -15 -14 -18 -15 -18 -2 0 14 66 51 135 77 27 10 322 101 370 114 20
6 136 -1 143 -8z"/>
<path d="M4475 2470 c-30 -6 -23 -7 25 -4 36 2 78 1 93 -4 l28 -7 -48 -56
c-26 -31 -94 -110 -151 -176 -112 -131 -132 -148 -219 -192 -71 -36 -172 -62
-373 -97 -85 -14 -157 -28 -159 -30 -8 -7 17 -4 166 21 299 51 417 96 511 194
70 72 242 274 265 312 l19 29 -27 10 c-29 11 -69 11 -130 0z"/>
<path d="M4641 2453 c0 -17 -6 -35 -11 -38 -6 -4 -44 -47 -85 -97 -74 -89 -92
-125 -57 -114 9 3 95 10 191 15 95 6 176 13 179 15 6 6 -200 -3 -305 -13 -40
-4 -73 -5 -73 -3 0 2 39 51 86 108 70 86 85 109 81 132 -4 25 -4 25 -6 -5z"/>
<path d="M5815 2440 c-63 -29 -125 -56 -195 -85 -78 -32 -100 -50 -100 -82 0
-30 24 -30 38 2 6 14 23 27 39 31 15 4 37 13 48 20 11 8 25 14 32 14 6 0 40
13 75 28 35 16 78 35 96 42 20 8 32 19 30 28 -4 22 -18 23 -63 2z m53 -1 c-2
-6 -74 -40 -160 -76 -120 -50 -158 -70 -163 -86 -4 -14 -8 -17 -12 -9 -10 26
13 42 152 102 22 9 69 31 105 48 72 34 83 37 78 21z"/>
<path d="M5100 2429 c0 -5 14 -9 31 -9 35 0 103 -44 144 -92 39 -46 91 -159
116 -253 27 -100 38 -371 20 -497 -19 -127 -48 -251 -77 -322 -4 -12 -4 -17 3
-13 9 5 22 48 52 162 42 162 54 453 26 601 -38 201 -108 337 -202 395 -38 24
-113 42 -113 28z"/>
<path d="M5094 2389 c-17 -5 -39 -19 -50 -31 l-19 -22 36 22 c20 12 53 26 75
31 26 6 31 9 14 9 -14 0 -39 -4 -56 -9z"/>
<path d="M4235 2359 c-65 -6 -95 -16 -95 -30 0 -5 13 -3 30 6 37 19 154 21
147 3 -2 -7 0 -21 5 -30 10 -20 -2 -24 -20 -6 -9 9 -12 9 -12 0 0 -13 35 -34
43 -25 3 3 3 18 0 34 -6 33 3 37 23 12 7 -10 14 -13 14 -7 1 31 -62 51 -135
43z"/>
<path d="M5085 2354 c-93 -48 -146 -120 -200 -269 -76 -210 -121 -452 -156
-835 -7 -74 -16 -140 -21 -147 -15 -19 -166 -63 -214 -63 -48 0 -83 28 -139
111 -59 87 -204 275 -242 313 -46 47 -88 66 -145 66 -40 0 -248 -20 -413 -39
-64 -8 -62 -8 25 -4 52 3 149 11 215 19 215 25 239 20 319 -64 36 -38 160
-200 251 -328 46 -64 77 -84 133 -84 38 0 197 44 218 61 5 4 16 75 23 156 51
582 138 903 284 1045 66 65 105 78 169 59 22 -7 42 -10 45 -7 7 6 -66 26 -97
26 -14 0 -38 -7 -55 -16z"/>
<path d="M1390 2353 c8 -3 20 -11 26 -19 27 -34 881 -135 1244 -148 l135 -5
-120 9 c-394 29 -851 78 -1095 115 -127 20 -150 25 -150 34 0 4 44 -1 98 -10
100 -19 750 -94 882 -103 l75 -5 -65 9 c-36 5 -213 25 -395 45 -181 20 -384
45 -450 56 -129 22 -209 32 -185 22z"/>
<path d="M4179 2320 c-9 -5 -38 -11 -63 -12 -25 0 -44 -4 -41 -6 8 -9 98 -2
110 8 6 5 35 10 65 13 l55 3 -55 2 c-30 1 -62 -3 -71 -8z"/>
<path d="M831 2279 c-15 -44 -14 -84 5 -154 9 -33 19 -87 23 -120 l6 -60 60
-2 c86 -4 222 -20 441 -54 105 -16 319 -45 475 -64 550 -69 847 -121 927 -164
12 -6 22 -8 22 -3 0 6 -8 12 -17 15 -188 59 -394 95 -932 162 -156 19 -370 48
-475 64 -213 33 -353 50 -436 54 l-55 2 -6 55 c-4 30 -14 82 -23 115 -19 69
-20 113 -6 151 6 15 9 29 6 31 -2 2 -9 -10 -15 -28z"/>
<path d="M5460 2289 c0 -5 4 -8 9 -4 5 3 12 -3 14 -12 4 -14 5 -13 6 5 1 13
-5 22 -14 22 -8 0 -15 -5 -15 -11z"/>
<path d="M4120 2257 c0 -29 32 -77 52 -77 13 0 46 37 52 60 6 23 6 23 -5 5 -7
-11 -21 -28 -32 -37 -19 -17 -20 -16 -39 8 -12 14 -18 33 -15 44 3 11 1 23 -4
26 -5 3 -9 -10 -9 -29z"/>
<path d="M5087 2274 c-16 -9 -26 -18 -23 -21 3 -3 17 2 30 11 33 21 90 20 127
-1 40 -24 94 -105 118 -179 34 -103 43 -196 39 -383 -5 -155 -9 -190 -36 -294
-42 -161 -90 -257 -166 -333 -75 -75 -115 -87 -176 -53 -62 35 -106 108 -135
223 -14 54 -26 113 -26 130 -1 26 -2 27 -6 7 -7 -34 35 -207 63 -262 73 -146
183 -165 295 -50 82 83 136 212 179 421 19 93 21 128 17 295 -4 155 -9 204
-26 263 -30 101 -62 162 -110 205 -35 32 -48 37 -89 37 -26 -1 -60 -8 -75 -16z"/>
<path d="M6807 2263 c-4 -3 -7 -17 -7 -30 0 -20 -14 -65 -45 -148 -6 -14 -5
-17 3 -10 12 12 48 116 55 163 5 33 5 36 -6 25z"/>
<path d="M4060 2244 c-19 -8 -41 -21 -50 -28 -8 -7 -28 -18 -45 -25 l-30 -11
35 6 c19 4 42 12 50 19 8 7 33 22 55 33 46 24 36 28 -15 6z"/>
<path d="M5222 2199 c75 -78 113 -190 124 -364 20 -308 -96 -685 -239 -773
-33 -21 -87 -30 -87 -14 0 4 -14 16 -30 27 -17 11 -44 40 -60 64 -17 25 -30
40 -30 34 0 -37 111 -143 150 -143 63 0 148 81 198 188 39 85 81 246 98 376
34 254 -5 484 -103 604 -19 23 -40 42 -47 42 -7 0 4 -18 26 -41z"/>
<path d="M4238 2185 c-18 -24 -46 -49 -63 -54 -16 -6 -118 -26 -225 -46 -107
-19 -204 -40 -215 -45 l-20 -10 20 5 c11 2 106 20 210 39 105 20 205 38 223
42 23 5 46 22 74 55 37 44 78 65 78 39 0 -5 -20 -36 -45 -69 -44 -57 -61 -68
-130 -75 -33 -4 -224 -36 -305 -52 -41 -7 -109 -15 -150 -16 -43 -2 -81 -8
-88 -15 -7 -7 -9 -13 -4 -13 5 0 11 3 14 6 4 3 39 7 80 10 40 2 107 11 148 18
72 14 257 45 310 53 86 12 91 15 136 76 53 73 56 97 14 97 -23 0 -36 -9 -62
-45z"/>
<path d="M6826 2209 c-2 -13 -11 -69 -20 -124 -25 -163 -56 -242 -89 -229 -31
12 -31 38 0 149 3 13 2 17 -5 10 -11 -11 -32 -93 -32 -124 0 -11 11 -28 25
-37 24 -16 27 -15 44 0 11 10 29 53 40 95 21 76 52 272 45 280 -1 2 -5 -7 -8
-20z"/>
<path d="M4450 2211 c0 -4 -35 -44 -78 -88 -126 -130 -186 -153 -607 -229 -90
-16 -222 -29 -255 -24 -11 1 -9 4 5 10 16 7 14 8 -12 7 -18 -1 -33 -5 -33 -9
0 -7 56 -28 62 -23 1 1 37 5 78 9 103 8 343 52 483 87 130 33 181 61 271 149
l82 80 124 7 125 6 -18 -24 c-15 -21 -41 -66 -72 -124 -24 -45 -191 -111 -255
-100 -21 3 -40 3 -43 -2 -8 -13 125 -9 148 4 11 6 40 19 65 28 68 25 85 39
115 97 15 29 39 67 52 85 l25 32 -27 7 c-15 4 -74 4 -131 0 -91 -6 -103 -5
-98 9 3 8 3 15 0 15 -3 0 -6 -4 -6 -9z"/>
<path d="M4137 2173 c-15 -14 -6 -19 25 -15 28 4 30 6 13 13 -26 10 -30 10
-38 2z"/>
<path d="M3718 2122 c-30 -18 -34 -27 -16 -38 7 -5 8 -3 3 6 -5 9 -1 11 16 6
13 -3 18 -3 11 0 -10 5 -9 10 4 25 21 23 17 24 -18 1z"/>
<path d="M3812 2100 c-51 -16 -103 -36 -115 -45 -12 -8 -33 -15 -48 -15 -26 0
-96 -53 -145 -110 -12 -14 -25 -22 -29 -18 -4 4 16 30 44 58 29 27 48 50 43
50 -13 0 -102 -97 -102 -111 0 -7 8 -9 23 -5 12 4 47 7 77 7 30 0 71 3 90 8
24 6 9 7 -49 3 -56 -3 -82 -2 -80 5 8 21 111 101 137 106 15 3 55 17 90 32 35
14 76 27 90 28 15 1 29 5 32 8 3 3 19 11 35 17 64 23 -5 9 -93 -18z"/>
<path d="M6176 2110 c-37 -10 -73 -23 -80 -30 -6 -6 8 -4 33 5 50 17 81 19 81
5 0 -5 -11 -10 -24 -10 -26 0 -200 -60 -193 -66 2 -2 40 10 86 26 45 17 93 30
108 30 25 0 26 -1 19 -46 -3 -26 -6 -68 -6 -93 l0 -47 -62 -21 c-35 -12 -103
-38 -153 -58 -49 -20 -108 -44 -130 -53 -22 -8 -62 -25 -90 -37 -27 -12 -72
-30 -98 -40 -26 -10 -50 -22 -53 -27 -3 -4 19 2 48 14 29 12 66 22 81 21 16 0
24 3 17 7 -6 4 17 18 52 33 305 125 401 161 396 145 -2 -6 -17 -16 -34 -21
-16 -5 -83 -30 -149 -57 -66 -26 -148 -57 -183 -70 -34 -12 -61 -24 -59 -27 2
-2 64 20 138 48 74 28 170 64 213 80 l79 28 1 130 1 131 33 6 c27 5 39 1 77
-31 25 -20 45 -41 45 -47 0 -6 3 -9 6 -6 10 10 -26 57 -61 78 -38 24 -49 24
-139 0z"/>
<path d="M1785 2096 c-75 -33 -114 -120 -55 -122 22 -1 22 0 3 3 -16 3 -23 11
-23 28 0 13 5 27 10 30 7 4 9 -2 4 -19 -5 -22 -3 -26 14 -26 12 0 23 4 26 9 4
5 -4 7 -16 3 -15 -4 -19 -2 -14 7 5 7 25 11 49 9 39 -3 43 0 59 31 28 56 6 75
-57 47z m59 -4 c3 -5 -4 -23 -14 -40 -17 -28 -23 -31 -52 -25 -50 9 -51 16 -6
46 43 28 63 33 72 19z"/>
<path d="M6276 2072 c31 -27 154 -203 154 -220 0 -19 -42 -45 -211 -129 -197
-100 -203 -102 -170 -73 29 25 16 50 -16 31 -16 -11 -16 -11 5 -6 34 10 27 0
-28 -35 -27 -18 -50 -34 -50 -36 0 -5 33 8 47 18 7 6 16 7 22 4 5 -3 96 37
201 89 164 82 194 100 203 125 10 28 51 49 66 34 21 -21 -191 -145 -464 -269
-44 -20 -109 -50 -145 -67 -36 -17 -76 -35 -90 -40 -31 -13 -92 -11 -101 4 -4
7 -9 7 -13 0 -9 -15 6 -22 57 -23 32 -2 64 7 113 30 38 18 96 45 129 59 170
76 445 218 485 251 25 21 53 40 63 44 9 3 17 14 17 24 0 15 -2 15 -15 -3 -12
-16 -16 -17 -24 -5 -8 12 -16 13 -45 4 -20 -6 -36 -8 -36 -4 0 3 -25 45 -56
91 -54 82 -98 129 -119 129 -5 0 4 -12 21 -27z"/>
<path d="M6630 2099 c0 -2 7 -57 14 -122 12 -100 18 -122 38 -141 28 -27 55
-39 63 -26 4 6 -2 10 -12 10 -10 1 -29 9 -41 20 -21 17 -26 35 -37 136 -8 64
-16 119 -19 122 -3 3 -6 3 -6 1z"/>
<path d="M5146 1982 c3 -12 0 -39 -7 -59 -11 -34 -10 -37 14 -55 14 -10 36
-35 48 -54 20 -32 21 -45 16 -147 -3 -78 -3 -94 3 -52 19 146 3 223 -54 260
-22 14 -23 19 -13 50 7 25 7 41 -1 57 l-12 23 6 -23z"/>
<path d="M5232 1888 c5 -28 7 -59 5 -69 -3 -10 -1 -19 4 -21 5 -2 5 -57 1
-128 -9 -135 -24 -182 -84 -255 -24 -28 -35 -34 -56 -30 -26 5 -26 5 -4 -5 13
-5 20 -14 17 -20 -3 -5 -1 -10 6 -10 7 0 10 -13 7 -35 -2 -19 0 -35 5 -35 5 0
7 20 6 44 -2 35 2 50 25 76 60 72 78 126 87 255 8 115 -5 285 -22 285 -3 0 -2
-23 3 -52z"/>
<path d="M854 1905 c-9 -14 -18 -50 -20 -78 l-3 -52 8 53 c5 29 17 62 27 73 9
10 15 22 11 25 -3 3 -13 -6 -23 -21z"/>
<path d="M975 1913 c22 -2 119 -15 215 -29 367 -52 395 -59 428 -106 17 -23
34 -23 57 2 11 12 31 20 51 20 38 0 308 -30 529 -60 83 -11 170 -22 195 -24
l45 -5 -40 9 c-79 18 -659 90 -731 90 -28 0 -46 -6 -59 -20 -18 -20 -18 -20
-48 10 -16 17 -39 32 -51 35 -105 23 -546 85 -590 83 l-41 -1 40 -4z"/>
<path d="M4260 1899 c-20 -10 -80 -25 -135 -33 -55 -8 -165 -29 -245 -46 -80
-18 -163 -34 -185 -37 -22 -2 -101 -13 -175 -24 -175 -27 -247 -37 -347 -49
-100 -12 -222 -49 -237 -72 -7 -12 -7 -23 2 -40 6 -13 13 -34 15 -48 3 -18 5
-16 6 11 0 19 -4 40 -11 47 -9 9 -9 15 2 26 24 23 131 55 222 66 101 12 172
22 348 49 74 11 153 22 175 24 22 3 105 19 185 37 80 17 187 38 238 45 91 13
157 30 177 45 6 4 19 10 30 13 16 4 15 5 -5 5 -14 -1 -41 -9 -60 -19z"/>
<path d="M888 1892 c10 -7 10 -11 -2 -21 -21 -17 -46 -109 -46 -166 0 -27 -6
-52 -14 -61 -19 -19 -58 -137 -51 -155 6 -17 90 -69 110 -69 16 0 29 -37 29
-89 1 -33 4 -37 56 -60 110 -49 853 -192 1325 -256 348 -47 926 -67 1380 -48
l210 9 75 37 c41 20 115 68 165 107 53 42 97 70 108 68 21 -3 111 -142 105
-160 -2 -6 -23 20 -45 59 -61 102 -59 101 -134 40 -93 -77 -152 -116 -222
-146 l-62 -26 -615 0 c-584 0 -624 1 -800 23 -415 52 -1055 164 -1301 227 -72
19 -101 18 -34 -1 141 -39 654 -137 995 -189 440 -67 458 -68 1091 -72 387 -3
606 -1 643 6 32 6 85 24 119 40 34 17 64 26 65 20 2 -5 29 -8 60 -7 53 1 54 2
12 5 -25 2 -51 6 -58 8 -8 3 26 36 80 78 l93 73 58 -88 c62 -93 95 -118 161
-118 24 0 180 38 277 67 12 3 18 -5 22 -33 4 -22 2 -43 -5 -51 -11 -14 -78
-36 -180 -58 -34 -7 -52 -14 -38 -14 33 -1 210 46 227 61 14 12 11 66 -8 114
l-8 22 -97 -29 c-54 -16 -122 -33 -152 -38 -49 -7 -56 -6 -82 15 -15 13 -31
24 -35 24 -9 0 -31 23 -33 35 -1 6 -18 36 -38 68 -48 78 -65 77 -180 -13 -49
-39 -120 -87 -159 -107 l-70 -37 -210 -9 c-284 -12 -934 -1 -1122 18 -162 17
-347 40 -433 55 -30 6 -150 26 -265 45 -372 61 -670 122 -815 165 -70 21 -71
22 -54 41 9 10 14 19 9 19 -4 0 -13 -7 -20 -16 -7 -11 -19 -14 -32 -10 -17 6
-21 15 -21 55 0 61 -2 65 -57 92 -94 47 -97 56 -44 165 19 40 29 77 29 106 0
58 24 125 55 158 l25 26 -28 2 c-17 1 -22 -1 -14 -6z m3830 -853 c-28 -16
-240 -69 -278 -69 -43 0 -108 36 -92 52 8 8 20 3 41 -15 36 -30 66 -28 211 13
102 30 149 37 118 19z"/>
<path d="M1082 1853 c2 -22 8 -28 28 -28 20 0 26 6 28 28 3 24 0 27 -28 27
-28 0 -31 -3 -28 -27z m46 0 c-2 -10 -10 -18 -18 -18 -8 0 -16 8 -18 18 -2 12
3 17 18 17 15 0 20 -5 18 -17z"/>
<path d="M5062 1828 c-45 -58 -75 -187 -62 -268 l9 -55 -4 57 c-4 67 17 177
43 222 10 17 29 37 43 43 23 12 23 13 3 13 -12 0 -26 -6 -32 -12z"/>
<path d="M5076 1795 c-13 -14 -30 -47 -37 -73 -18 -61 -18 -180 -1 -191 7 -4
10 -15 7 -23 -7 -19 20 -48 44 -48 21 0 42 22 67 70 22 43 25 210 4 250 -25
47 -50 52 -84 15z m68 -12 c37 -73 27 -219 -19 -279 -28 -37 -46 -42 -64 -20
-10 12 -9 20 4 40 10 14 23 26 31 26 16 0 38 67 31 100 -4 21 -4 20 -6 -7 -1
-43 -21 -83 -39 -83 -13 0 -13 2 0 18 21 24 33 46 22 39 -6 -3 -10 18 -10 49
-1 43 2 54 12 50 8 -3 14 -2 14 3 0 5 -9 11 -20 14 -20 5 -50 -24 -50 -48 1
-5 7 1 14 14 13 23 13 23 19 -13 3 -21 2 -49 -3 -62 -7 -17 -7 -23 0 -19 17
10 11 -12 -7 -26 -15 -13 -16 -10 -10 39 4 32 2 50 -3 47 -13 -8 -13 -81 0
-105 6 -11 6 -21 1 -24 -18 -11 -34 54 -27 110 8 66 26 114 55 143 28 28 38
26 55 -6z"/>
<path d="M6050 1766 c-74 -28 -196 -74 -270 -100 -74 -27 -139 -52 -143 -56
-12 -11 11 -50 29 -50 17 0 342 125 438 168 70 32 106 58 106 78 0 20 -11 18
-160 -40z m136 25 c-15 -17 -136 -81 -154 -81 -4 0 -46 -16 -92 -36 -47 -20
-127 -52 -179 -71 -85 -32 -95 -34 -109 -19 -14 14 -11 17 29 34 24 10 103 40
174 65 72 26 175 64 230 86 116 46 124 47 101 22z"/>
<path d="M1686 1718 c-3 -13 -6 -59 -7 -103 -1 -102 -12 -138 -24 -75 -5 25
-9 54 -9 65 -1 23 -33 72 -41 63 -3 -3 4 -16 15 -31 23 -29 25 -38 8 -34 -7 1
-21 18 -30 37 -10 19 -15 26 -12 15 25 -76 44 -154 44 -180 0 -35 15 -55 42
-55 12 0 18 -8 18 -23 0 -23 33 -67 49 -67 5 0 12 7 15 16 12 30 6 44 -16 43
-17 -1 -19 -2 -5 -6 19 -5 21 -12 8 -32 -7 -11 -12 -9 -22 10 -17 30 -18 42
-4 51 5 4 -5 10 -22 14 -40 8 -49 19 -56 69 -3 22 -9 56 -13 75 -10 51 7 29
21 -27 24 -93 45 -53 45 86 0 42 5 83 10 91 9 13 10 13 10 0 0 -8 3 -26 7 -39
4 -14 2 -22 -3 -18 -13 7 0 -106 16 -151 17 -47 33 -35 45 35 6 33 17 68 25
78 12 15 13 17 1 14 -21 -7 -29 -27 -37 -94 l-7 -60 -19 40 c-14 29 -18 55
-15 95 6 71 -2 120 -18 120 -7 0 -15 -10 -19 -22z"/>
<path d="M2300 1687 c0 -28 20 -49 37 -39 7 4 16 19 22 32 l10 25 0 -26 c1
-31 8 -39 27 -32 14 5 20 52 7 54 -5 0 -29 3 -55 5 -46 5 -48 4 -48 -19z m43
7 c3 -4 1 -16 -4 -27 -9 -16 -13 -17 -20 -6 -13 21 -11 39 4 39 8 0 17 -3 20
-6z m57 -18 c0 -8 -4 -18 -10 -21 -5 -3 -10 3 -10 14 0 12 5 21 10 21 6 0 10
-6 10 -14z"/>
<path d="M2694 1632 c9 -18 33 -43 54 -56 21 -13 55 -44 75 -70 33 -40 43 -46
76 -46 34 0 42 -5 67 -42 24 -36 29 -56 32 -120 2 -43 7 -78 11 -78 3 0 4 36
0 79 -4 66 -11 89 -37 131 -18 28 -32 55 -32 59 0 5 -7 14 -15 21 -9 8 -15 9
-15 2 0 -6 5 -14 10 -17 19 -12 10 -25 -17 -25 -20 0 -43 16 -85 58 -32 31
-76 75 -99 97 l-42 39 17 -32z"/>
<path d="M2710 1642 c0 -4 24 -22 54 -40 30 -18 73 -53 95 -79 23 -25 41 -41
41 -35 0 20 -61 81 -122 122 -64 42 -68 44 -68 32z"/>
<path d="M1812 1613 c-17 -43 -26 -93 -26 -148 -1 -49 -1 -50 -31 -48 -29 3
-29 3 -6 -7 39 -17 54 -5 48 38 -5 34 11 134 28 175 4 9 5 17 2 17 -2 0 -9
-12 -15 -27z"/>
<path d="M869 1607 c-23 -32 -5 -118 34 -160 15 -17 32 -38 38 -49 15 -28 112
-95 171 -118 197 -76 818 -190 1123 -207 156 -8 361 16 492 58 67 22 143 71
143 93 0 7 7 19 15 26 8 7 15 20 14 29 0 11 -3 9 -9 -6 -15 -37 -18 -27 -12
45 3 53 1 75 -12 98 -10 16 -14 20 -10 9 4 -11 10 -47 11 -80 4 -55 1 -63 -27
-97 -98 -117 -421 -165 -810 -118 -523 62 -827 144 -988 266 -58 45 -112 129
-119 184 -7 56 -26 66 -54 27z m45 -34 c12 -89 90 -180 207 -243 159 -85 484
-160 914 -211 347 -41 667 -4 788 92 20 17 37 25 37 20 0 -13 -75 -69 -110
-83 -108 -42 -350 -73 -510 -65 -302 15 -959 136 -1122 206 -110 47 -223 161
-245 247 -10 39 -9 48 5 64 25 27 29 24 36 -27z"/>
<path d="M754 1545 c-3 -14 -3 -45 0 -69 l7 -44 -48 -10 c-26 -6 -124 -25
-218 -42 -93 -17 -226 -42 -294 -55 -69 -14 -136 -25 -150 -25 -14 0 -33 -5
-41 -10 -23 -15 40 -4 584 99 88 17 161 29 162 28 1 -1 4 -12 8 -23 5 -18 1
-22 -26 -27 -405 -74 -732 -137 -737 -143 -3 -3 7 -4 24 0 17 3 178 34 360 67
182 34 346 65 365 68 31 6 40 3 79 -31 24 -21 48 -38 53 -38 11 0 -73 79 -84
80 -18 0 -34 61 -34 127 1 40 0 73 -1 73 -2 0 -5 -11 -9 -25z"/>
<path d="M1694 1507 c-8 -22 -1 -30 21 -25 14 3 14 5 1 23 -14 19 -15 19 -22
2z"/>
<path d="M1000 1295 c-8 -9 -8 -15 -2 -15 12 0 26 19 19 26 -2 2 -10 -2 -17
-11z"/>
<path d="M2687 1266 c-7 -16 33 -36 72 -36 17 0 31 7 35 15 6 17 -16 31 -33
21 -5 -4 -12 -2 -16 4 -9 15 -52 12 -58 -4z m53 -11 c16 -19 0 -19 -26 0 -16
12 -16 14 -3 15 9 0 22 -7 29 -15z m40 -5 c0 -5 -4 -10 -10 -10 -5 0 -10 5
-10 10 0 6 5 10 10 10 6 0 10 -4 10 -10z"/>
<path d="M5365 1120 c-16 -10 -42 -19 -56 -19 -21 -1 -38 -16 -78 -71 -28 -39
-51 -77 -51 -85 0 -18 -76 -69 -134 -89 -62 -22 -260 -55 -271 -46 -12 9 -134
10 -140 0 -2 -3 26 -5 63 -3 36 1 71 -2 77 -7 11 -9 182 19 270 45 62 18 145
69 145 90 0 8 23 46 51 85 38 51 58 70 74 70 13 0 43 11 66 25 24 14 37 24 29
24 -8 0 -28 -9 -45 -19z"/>
<path d="M7263 1048 c-105 -69 -473 -295 -853 -521 -102 -61 -246 -147 -320
-192 -178 -108 -355 -211 -462 -269 -49 -26 -88 -51 -88 -56 0 -13 266 137
560 315 74 45 218 131 320 192 504 301 939 569 969 599 2 2 0 4 -6 4 -6 0 -60
-32 -120 -72z"/>
<path d="M5190 1031 c-73 -77 -112 -93 -183 -74 -23 7 -35 7 -29 1 16 -16 88
-21 126 -8 46 15 88 50 127 106 16 24 29 44 27 44 -2 0 -32 -32 -68 -69z"/>
<path d="M4933 1012 c26 -28 109 -53 144 -42 24 7 22 8 -22 9 -34 1 -64 9 -95
27 -35 20 -41 21 -27 6z"/>
<path d="M7285 768 c-141 -103 -309 -220 -325 -226 -8 -3 -55 -33 -105 -67
-49 -34 -121 -79 -160 -101 -38 -21 -92 -55 -120 -76 -27 -21 -61 -44 -75 -51
-64 -32 -349 -231 -343 -239 3 -7 8 -7 12 -1 7 11 304 212 341 230 14 7 48 30
75 51 28 21 82 55 120 76 39 22 111 67 160 101 50 34 97 64 105 67 15 6 170
113 315 219 39 28 79 54 89 58 15 6 16 9 5 13 -8 3 -50 -22 -94 -54z"/>
</g>
</svg>
